PathFileType	4	(X/Y/Z)	c:/Users/goper/Files/vsCode/490R/osim_files/C11/C11_SSWS_03.trc
DataRate	CameraRate	NumFrames	NumMarkers	Units                	OrigDataRate	OrigDataStartFrame	OrigNumFrames
120.00	120.00	8	36	mm	120.0	620	991
                Frame#	Time	LPSI			LASI			LTH1			LTH2			LTH3			LTH4			LLFE			LMFE			LSH1			LSH2			LSH3			LSH4			LLMA			LMMA			LCAL			LMTP			LTOE			LMTP			RPSI			RASI			RTH1			RTH2			RTH3			RTH4			RLFE			RMFE			RSH1			RSH2			RSH3			RSH4			RLMA			RMMA			RCAL			RMTP			RTOE			RMTP		
		X1	Y1	Z1	X2	Y2	Z2	X3	Y3	Z3	X4	Y4	Z4	X5	Y5	Z5	X6	Y6	Z6	X7	Y7	Z7	X8	Y8	Z8	X9	Y9	Z9	X10	Y10	Z10	X11	Y11	Z11	X12	Y12	Z12	X13	Y13	Z13	X14	Y14	Z14	X15	Y15	Z15	X16	Y16	Z16	X17	Y17	Z17	X18	Y18	Z18	X19	Y19	Z19	X20	Y20	Z20	X21	Y21	Z21	X22	Y22	Z22	X23	Y23	Z23	X24	Y24	Z24	X25	Y25	Z25	X26	Y26	Z26	X27	Y27	Z27	X28	Y28	Z28	X29	Y29	Z29	X30	Y30	Z30	X31	Y31	Z31	X32	Y32	Z32	X33	Y33	Z33	X34	Y34	Z34	X35	Y35	Z35	X36	Y36	Z36

620	5.15833	-142.43124	981.53198	376.96722	-322.87711	992.73706	430.38516	-318.15491	600.87537	469.78375	-333.64682	556.87537	464.82407	-375.48145	616.24786	476.26584	-382.97824	571.36792	465.46985	-370.76355	499.73871	459.80478	-376.28146	512.66980	351.46936	-322.12894	396.06082	467.13849	-321.07684	351.25970	464.34534	-383.86343	389.27927	466.01889	-374.38684	345.47971	463.43466	-315.20712	93.28988	394.65335	-348.36777	111.48486	304.79202	-259.54016	60.06076	335.84491	-425.07397	40.60731	429.21082	-500.91077	58.14836	365.86084	-463.44992	44.23535	316.92850	-139.65923	987.33295	291.18741	-298.36240	964.30090	199.45399	-264.42944	594.30695	168.77333	-276.42441	551.99994	170.99875	-326.40338	603.37506	160.68021	-327.52615	560.31512	164.09904	-307.15796	477.61133	176.46936	-302.50809	461.21619	291.76453	-201.05064	462.64139	168.52640	-164.63091	434.86600	169.31606	-233.30518	408.97824	166.83403	-188.60938	389.65839	163.96861	57.92887	285.77109	212.57881	25.15515	263.76498	302.22556	108.91618	325.87033	274.20111	29.58890	125.24720	279.93817	23.76314	128.84036	228.88159	72.94662	156.19884	177.71542
621	5.16667	-151.21547	983.62006	377.44635	-331.49075	994.48291	431.29590	-321.79657	601.73773	470.37799	-336.82242	557.40320	465.51172	-379.18118	616.24353	477.05756	-386.15958	571.34717	466.30362	-373.67047	499.27551	459.84329	-379.66452	512.46735	351.86075	-323.79327	395.94873	468.25537	-322.46634	351.19571	465.34464	-385.51434	388.98779	466.56171	-375.87799	345.17764	463.91129	-315.25815	93.28757	394.72845	-348.38757	111.53219	304.84143	-259.55731	60.00283	335.89996	-425.05432	40.51126	429.30829	-500.73431	58.14943	365.99051	-463.45410	44.23425	316.98141	-148.48972	989.67627	291.81171	-306.82272	966.82202	200.30794	-281.65192	597.45435	168.56729	-294.79486	555.38104	170.80797	-343.33145	607.94720	160.72934	-345.65665	564.93396	163.96895	-327.45093	482.22467	176.36957	-323.27689	465.75610	291.73718	-221.90901	466.54410	169.14717	-185.82967	438.35736	169.86931	-254.78441	413.26001	166.79831	-209.73531	393.63074	164.05859	35.09852	287.19522	211.80185	2.41965	264.05994	301.47256	87.05234	325.12045	273.54816	4.19251	125.84488	277.12869	-2.01910	130.39326	226.18962	47.19931	157.57970	174.98820
622	5.17500	-159.80861	985.71130	377.87976	-340.05545	996.24390	432.20270	-325.18140	602.62817	470.81070	-338.95789	558.49487	465.68332	-382.58163	616.26001	477.79385	-388.91177	571.16034	467.31009	-375.45654	499.22430	460.57080	-383.22675	512.22028	352.11502	-325.13705	395.98636	469.28030	-323.61133	351.19986	466.26825	-386.79089	388.75735	467.15469	-376.85886	345.00919	464.43216	-315.42703	93.46797	394.74927	-348.32538	111.54157	304.86575	-259.59198	59.99427	335.91995	-425.03961	40.47401	429.37360	-500.80450	58.06233	365.94077	-463.37817	44.21034	317.00681	-157.44385	992.05548	292.35065	-315.84402	969.58148	201.07712	-298.87161	600.82477	168.07626	-313.56454	558.88977	170.04309	-360.11276	612.75262	160.73604	-363.60599	570.14606	163.51328	-347.47864	487.00818	176.39250	-343.39426	470.78909	291.69662	-242.56447	470.24167	169.64316	-206.94156	441.51370	170.18030	-276.25327	417.48895	166.43861	-230.64607	397.48520	163.78470	12.11796	287.33960	210.79420	-20.64772	263.61807	300.51550	64.95432	323.33118	272.78891	-21.88305	125.68389	274.64590	-28.49098	131.14165	223.66161	21.15521	157.60417	172.70749
623	5.18333	-168.54201	987.70398	378.17850	-348.58652	997.98053	433.05283	-328.18262	603.51361	471.13162	-341.17468	559.22198	466.15817	-385.28082	615.94360	478.26633	-391.31488	571.11011	468.23337	-376.95599	499.32147	461.28085	-384.93405	511.95355	352.95840	-326.07932	396.02097	470.03284	-324.38446	351.26703	466.96301	-387.71597	388.61093	467.73282	-377.73331	344.96375	465.04538	-315.39838	92.96406	394.49585	-348.27286	111.55207	304.89609	-259.62582	60.02890	335.86514	-425.04636	40.43860	429.41992	-500.71521	58.03582	365.92056	-463.33408	44.18642	317.02753	-166.09705	994.39136	292.79953	-324.72058	972.22375	201.79933	-315.87274	604.40588	167.54079	-330.54279	563.11786	170.47794	-376.82773	617.80151	160.65688	-380.94485	574.98206	163.41373	-367.19400	491.98627	176.44183	-362.65082	476.26263	291.54190	-263.23810	473.44385	169.59140	-227.76566	444.17197	170.41454	-297.51709	421.05139	166.33826	-252.85223	400.49261	163.93352	-11.50781	286.22678	209.86569	-44.20563	262.36453	299.54391	42.58327	320.37259	271.88147	-48.71601	124.80156	272.28580	-55.35347	130.88123	221.64096	-5.73190	156.86488	170.29126
624	5.19167	-176.93878	989.74359	378.33215	-356.93906	999.72729	434.02292	-328.29355	605.09845	473.23380	-343.22614	559.94604	466.66385	-388.12769	616.07996	478.92291	-393.53021	571.03497	469.11121	-378.14435	499.34677	461.99197	-386.98929	511.73703	353.80118	-326.67545	396.09570	470.57755	-324.76050	351.36496	467.43256	-388.31686	388.50537	468.45438	-378.12497	344.88104	465.54343	-315.33896	93.01483	394.50452	-348.29437	111.57978	304.95688	-259.62192	60.13134	335.83798	-425.01025	40.40440	429.44843	-500.60175	58.00174	365.88895	-463.30811	44.20190	317.06314	-174.89781	996.73798	293.07794	-333.80295	974.91107	202.54236	-332.77209	608.16852	167.11296	-348.29440	567.26245	170.16748	-393.22116	623.00232	160.92101	-398.02087	580.04877	163.41852	-386.63763	497.27023	176.33087	-381.86353	481.94321	291.32809	-282.58148	476.71017	170.43629	-248.40858	446.46268	170.33211	-318.72861	425.55963	167.24873	-274.47162	403.36334	163.87253	-35.54755	284.10147	208.96767	-67.89468	260.82413	299.54276	19.97129	316.44788	270.84018	-76.54498	123.38580	269.99127	-82.96971	129.97223	219.73326	-33.12932	155.16028	168.08968
625	5.20000	-185.35503	991.74054	378.34705	-365.29636	1001.29340	434.98193	-330.83997	606.13831	473.42487	-344.96609	560.78943	467.11057	-390.88129	616.23242	479.78510	-395.39175	570.99280	470.10297	-379.20523	499.46933	462.87106	-388.99884	511.60345	354.83356	-326.76843	396.34695	470.95279	-324.73874	351.59064	467.73749	-388.43750	388.38562	469.24030	-378.07812	344.79007	466.21103	-315.29761	93.08123	394.50244	-348.32953	111.65128	305.01514	-259.58252	60.27816	335.83279	-425.04382	40.35126	429.47906	-500.51468	58.00540	365.89908	-463.32935	44.23482	317.11691	-183.51562	998.97900	293.37912	-342.73083	977.53674	203.47336	-349.30563	612.27179	166.50275	-365.78690	571.67834	169.80373	-409.46475	628.16406	160.95824	-414.11975	585.32764	164.10814	-405.50443	502.83078	176.52037	-400.36349	487.96658	291.35379	-302.19986	479.48425	170.48248	-268.87070	448.35117	170.22403	-339.73087	429.31738	167.25517	-295.85843	406.02402	163.75694	-59.22201	281.43024	207.80423	-92.23824	258.23904	298.37366	-2.70699	311.54587	269.78268	-104.99855	121.29284	268.05667	-111.65712	128.68358	217.93861	-61.83661	152.77634	165.94031
626	5.20833	-193.82802	993.59442	378.39746	-373.54803	1002.79108	435.92410	-333.41452	607.15674	473.57837	-346.68466	561.56970	467.61630	-393.22745	616.29865	480.70883	-397.20782	570.93365	471.17380	-379.89688	499.55228	463.87677	-391.29733	511.43597	355.90466	-326.64624	396.62262	471.19489	-324.46567	351.87961	467.93665	-388.31830	388.29446	470.13174	-377.74823	344.72388	467.06262	-315.29883	93.11304	394.52689	-348.35992	111.75961	305.10870	-259.56885	60.40034	335.86438	-425.03427	40.29369	429.53952	-500.46732	58.05043	365.94391	-463.32840	44.32882	317.19138	-192.24716	1001.12524	293.56454	-351.83719	980.07312	204.37502	-365.81354	616.48395	165.97607	-383.05792	576.28107	169.31699	-425.67926	633.58350	161.04909	-431.17493	589.90515	163.33723	-424.09244	508.05719	177.07843	-418.46634	493.80017	291.26007	-321.47986	481.92432	170.39745	-288.88235	449.95770	170.00136	-360.26114	432.65308	167.82463	-317.97342	407.42392	163.89876	-83.71762	277.56509	206.84013	-117.00659	255.14787	297.24783	-25.63548	305.63406	268.55814	-134.49300	118.93247	266.29581	-140.84697	126.70911	216.35451	-89.94263	149.14082	164.52301
627	5.21667	-202.24364	995.22705	378.31436	-381.54291	1004.15240	436.96872	-335.85605	608.12970	473.76462	-348.32935	562.33063	468.14786	-395.59198	616.34967	481.66104	-398.76163	570.91058	472.33499	-380.47455	499.48798	464.72809	-393.13959	511.32391	357.09720	-326.38724	396.92593	471.30566	-323.91595	352.22464	468.09280	-387.90955	388.26740	471.17902	-377.08527	344.70834	467.96799	-315.25046	93.09413	394.57129	-348.37225	111.86822	305.20642	-259.53476	60.43302	335.90759	-424.86765	40.42905	429.80246	-500.39532	58.04813	366.00888	-463.29919	44.37777	317.25858	-200.86487	1003.08435	293.81265	-360.79956	982.47357	205.21915	-382.04437	620.74109	165.27864	-400.16998	580.89038	168.84688	-441.68704	639.09320	161.27693	-447.49774	595.17236	163.39909	-442.39536	512.80267	177.34869	-435.97418	499.21082	291.28717	-340.16748	484.22812	170.38817	-308.56851	451.24130	169.82732	-380.49936	436.18149	168.00548	-339.07687	409.60394	163.87073	-107.51205	273.39813	205.88638	-141.93599	251.40695	296.23264	-48.86873	298.77213	267.30841	-164.19498	116.22314	265.13870	-170.72916	124.18687	215.11961	-119.70956	145.30811	162.07436
